<svg id="Ebene_1" data-name="Ebene 1" xmlns="http://www.w3.org/2000/svg" viewBox="0 0 1366 768"><defs><style>.cls-1{fill:#231f20;}.cls-2,.cls-3{fill:none;stroke:#231f20;stroke-linecap:round;stroke-miterlimit:10;}.cls-2{stroke-width:2px;}</style></defs><path class="cls-1" d="M968,282.58A5.54,5.54,0,0,1,964,281L794.65,113.88l-28.32,35.93a5.57,5.57,0,0,1-8.29.51L656.18,49.54,541.67,193.69a5.58,5.58,0,0,1-8.32.47L482,142.62,403.88,240.7a5.57,5.57,0,1,1-8.72-6.94l82-103a5.58,5.58,0,0,1,4.05-2.09,5.68,5.68,0,0,1,4.25,1.63l51.33,51.53L651.32,37.75a5.58,5.58,0,0,1,4-2.1,5.47,5.47,0,0,1,4.25,1.6L761.44,138l28.32-35.92a5.57,5.57,0,0,1,8.28-.52L971.86,273.05a5.57,5.57,0,0,1-3.91,9.53Z"/><path class="cls-1" d="M49.71,430.3q24.36-31.17,45-61.11t35.16-55.63q14.55-25.69,15.68-35.61,22.1,21.46,20.41,39.71a91.75,91.75,0,0,1,45.41,11.95q20.85,11.79,27.4,31t-3,36.08q-9.53,16.84-29.81,24.41t-45.35,2.65q14.91,13.25,21.88,34t-3.58,39.41q-16.2,28.62-46.12,32T70.52,514.25Q38.17,496,24,463.28,25.34,461.48,49.71,430.3ZM202,360.93q-2.61-11.24-15-18.24a66.18,66.18,0,0,0-26.63-8.35q-8.38,14.79-48.55,70.78T62.17,477.84a62.15,62.15,0,0,0,18.13,16q17.2,9.75,34.81,4.67t27.34-22.3q9.75-17.21,4.63-35.31t-25.42-30.86l4.21-9.14q24.07,9.46,44,3.32t28.48-21.17Q204.56,372.17,202,360.93Z"/><path class="cls-1" d="M287.31,526.64a112.05,112.05,0,0,1-24.07-10.77q-1.1,2.58-2.85,8.15-6.93,22.07-2.19,35.81t16.15,17.34a40.52,40.52,0,0,0,24-.07,65.64,65.64,0,0,0,24.08-13.45q8.89,5.13,6.48,12.84Q294.22,605,257.28,593.41,235,586.39,223.6,564t-1.76-53a115.26,115.26,0,0,1,22.42-40.69q15.24-17.84,38.84-26.05a72.76,72.76,0,0,1,46.85-.9q23.25,7.31,30.81,21.36t2.13,31.32q-7.84,25-29.09,31.74T287.31,526.64Zm33.62-68q-13.56-4.26-28.12,9.56t-25,36.81l4,1.26q23.11,7.26,37.9-1.24a42.82,42.82,0,0,0,20.05-25.23,20.44,20.44,0,0,0,.12-12.95C328.51,462.86,325.53,460.11,320.93,458.67Z"/><path class="cls-1" d="M463.2,489.7q16.74-14.54,28.69-12.49t16.46,12q4.53,9.94,2.11,24.08a44.47,44.47,0,0,1-12.79,24.53q-10.4,10.38-24.93,7.9a24.24,24.24,0,0,1-8.69-3.74q10.33-9.26,12.9-24.36,1.5-8.78-5.64-10-5.22-.89-12.5,5.36t-14.94,18.08q-7.67,11.82-14.76,31.11A234.53,234.53,0,0,0,418.17,604q-.46,2.74-2.6,23.57-8.88-1-11.35-1.37-15.64-2.65-21.58-9.32t-3.78-19.29q.94-5.5,13-41.31t15.75-57.64a165.76,165.76,0,0,0,2.18-41q19,9.74,24.94,22.75T438,508.86a176.31,176.31,0,0,1-7.55,29.37Q446.45,504.22,463.2,489.7Z"/><path class="cls-1" d="M609.08,489.63a44.9,44.9,0,0,1,8,1c4.76,1.21,7.16,4.78,7.2,10.74Q593.63,506,574.2,531.45t-21.06,54q-1.89,33.38,18.4,34.52,12.24.71,22.73-12.1,18.62-23.2,28.49-74.26,7.59-40.31,22.71-51.16a50.89,50.89,0,0,1,17.77-8.19q-5.57,29.25-6.42,44.27-6.32,111.23-33.27,165.77t-80.63,51.5q-21.69-1.23-33.27-13.47t-10.8-26q.79-13.77,9.9-22t24.7-7.38a33.79,33.79,0,0,1,12.91,3.53q-11,6.33-11.79,20.8a25.76,25.76,0,0,0,4.89,17.16q5.43,7.42,13.92,7.91a30.68,30.68,0,0,0,15.07-2.64q6.6-3.11,13.78-11.63a89.67,89.67,0,0,0,12.94-21.58q13.16-30.22,17.3-83.55-9.42,23.46-26.65,37T551.63,646.5q-21.42-1.21-31.76-18.13t-8.9-42.2a110.47,110.47,0,0,1,17.3-54q17.51-28.31,46.24-38.11A89.36,89.36,0,0,1,609.08,489.63Z"/><path class="cls-1" d="M789.28,502.86q.44,13.36-4.13,18.67t-16.4,5.69q-11.84.38-18.24.31-8.29,79.41-7.19,113.65.54,16.43,1.47,23.78T749.36,690q-20.25-5.76-30.18-19.78t-10.56-33.52q-.95-29.22,5.56-86.57,1.47-14.53,1.89-19.29a122.67,122.67,0,0,0-29.77,10.44c-.5-4.07-.78-7.12-.85-9.17q-.48-15,8.53-20.62t26.26-6.42q4.69-27.47,13.37-47.53t19.5-30.45q20.52-20.17,43.64-20.92,15.59-.51,26.6,8.47t11.46,22.48A33.63,33.63,0,0,1,826.38,461q-8.85,10.33-23.89,10.81A34.27,34.27,0,0,1,791,470.2q4.35-3.48,8.4-12t3.8-15.86Q803,435,799.64,430.9A10.22,10.22,0,0,0,791,427q-11.41.38-22.63,19.83t-15.81,58.06q24.76-.81,35.89-10.36Q789.2,500.08,789.28,502.86Z"/><path class="cls-1" d="M872,495q12.25-18.47,24.31-19.7t19.07,7.16q7,8.4,8.47,22.66a44.57,44.57,0,0,1-5.79,27q-7.24,12.78-21.93,14.27a24.19,24.19,0,0,1-9.37-1.28q7.49-11.68,5.94-26.92c-.6-5.91-3.31-8.63-8.1-8.14q-5.28.54-10.62,8.5T864.36,540q-4.25,13.46-5.93,33.92a235.25,235.25,0,0,0,.61,43.2q.29,2.77,3.78,23.41-8.8,1.46-11.3,1.71-15.79,1.61-23.29-3.23t-8.79-17.59q-.56-5.54,1.48-43.27t-.19-59.74a166.66,166.66,0,0,0-8.84-40.13q20.86,4.33,30.11,15.28t10.82,26.62a177.76,177.76,0,0,1,.57,30.32Q859.69,513.49,872,495Z"/><path class="cls-1" d="M968.26,437.58q-28.21,5.19-31.84-14.53-1.3-7.12.53-20.21a99.07,99.07,0,0,1,13.22-3.56q28.22-5.19,31.84,14.53,1.32,7.13-.52,20.2A96.39,96.39,0,0,1,968.26,437.58Zm-11.9,144.65q-2.13-11.51-3.28-42.45t-4.23-47.65q-3.08-16.69-6.38-25.45,5.91-1.65,11.13-2.61,15.87-2.93,23,1.29t9.51,17.08q.76,4.11,1.23,44.38t5,65.63q4.51,25.37,9.17,32.16-22.38-1.56-31.81-11.28T956.36,582.23Z"/><path class="cls-1" d="M1100.83,525.11a112.31,112.31,0,0,1-25.95,4.6q.52,2.74,2.22,8.34,6.64,22.16,18.28,30.86t23.11,5.28a40.58,40.58,0,0,0,19.79-13.51A66,66,0,0,0,1150.65,536c6.82-.5,11,1.83,12.56,7q-12.64,43.08-49.73,54.21-22.39,6.74-44.38-5.42T1037.91,549a115.1,115.1,0,0,1-4.31-46.26q2.6-23.31,17.51-43.36a72.79,72.79,0,0,1,38.26-27.06q23.34-7,37.49.37t19.35,24.72q7.53,25.08-6.25,42.6T1100.83,525.11ZM1090.47,450q-13.6,4.09-17.89,23.7t0,44.5l4-1.2q23.2-7,30.67-22.31a42.81,42.81,0,0,0,2.41-32.13,20.52,20.52,0,0,0-7.17-10.79Q1097.4,447.9,1090.47,450Z"/><path class="cls-1" d="M1234.91,487.82q15.22,29.44,33,20.23,9.4-4.86,13.06-19.62t.4-34.69a391.27,391.27,0,0,0-9.22-41.49A404,404,0,0,0,1257,367.92q-18.3-43.85-30.51-67.47T1206.1,266q19.86-5.25,33.69,3.9t23.93,28.7q10.11,19.55,29.33,77t31.89,82q12.66,24.49,23.73,40.42-20,4.38-32.89-4.48t-22.49-27.41q3.35,25.25-5.61,45.55t-25.27,28.75q-16.32,8.45-33.05,1.26t-29.27-31.43q-19.83-38.36-13.07-76.81t35.46-53.31q8.16-4.22,27.78-9.35A79.88,79.88,0,0,0,1230,398.62a82,82,0,0,0-7.1,32.05Q1222,462.85,1234.91,487.82Z"/><path class="cls-1" d="M395.85,378.69q-3.9-3.1-3.89-10.45t5.22-44.37q5.22-37,5.22-52.88t-2.18-20.67q15.9,1.26,20.9,12.48a54.37,54.37,0,0,1,26.44-6.55q14.42,0,22.77,9t8.35,22.07q0,16.21-11.86,29.33a42.9,42.9,0,0,1-14.89,10.13,50.9,50.9,0,0,1-20.21,3.9,60.24,60.24,0,0,1-8.89-.62l-.46-6.55h1.25q17.63,0,28.07-13.1,7.19-9.36,7.18-19.66,0-15.12-12.33-20-10.44-3.9-23.39,1.56v.31q0,5.92-4.45,38.76t-4.44,54.82a95.13,95.13,0,0,0,.94,15.29q-5,.31-6.56.31Q399.76,381.81,395.85,378.69Z"/><path class="cls-1" d="M521.72,340.79a62.47,62.47,0,0,1-14.66-1.72c-.1,1.05-.15,2.66-.15,4.84q0,12.94,4.83,19.5T523.29,370a22.64,22.64,0,0,0,12.78-4.06,36.66,36.66,0,0,0,10.61-11.23q5.63,1.26,5.62,5.77-13.72,21.06-35.41,21.06-13.09,0-22.93-10.06t-9.83-28a64.45,64.45,0,0,1,5.15-25.5,49.18,49.18,0,0,1,16.38-20.43,40.76,40.76,0,0,1,24.88-8.35q13.63,0,20,6.24t6.4,16.38q0,14.67-10.22,21.84T521.72,340.79Zm6.55-42q-7.93,0-13.41,9.83t-7.17,23.86H510q13.56,0,20-7a24,24,0,0,0,6.47-16.85,11.45,11.45,0,0,0-2.1-6.94A7.18,7.18,0,0,0,528.27,298.83Z"/><path class="cls-1" d="M633.56,289.16q9.2,0,13.18,5.7t4,15.44q0,9.75-3.05,27.37t-3,25.66c0,5.35.67,9.26,2,11.7a16.54,16.54,0,0,0,6.87,6.31c-1.36.11-3.28.16-5.78.16q-13.1,0-18.64-4.05t-5.54-14.2q0-5.76,3.13-22.54t3.12-25q0-10.29-6.25-10.3-3.59,0-8.1,4.21a49.79,49.79,0,0,0-8.74,11.47,71.37,71.37,0,0,0-7,18.64,94.61,94.61,0,0,0-2.8,22.7,109.28,109.28,0,0,0,.93,16.76q-5,.31-6.55.31-8.89,0-12.79-3.11t-3.9-10.3q0-3.12,3.28-24t3.27-33.3a93.17,93.17,0,0,0-2.65-22.85q11.38,3.58,15.91,10.21a26.28,26.28,0,0,1,4.52,15.13A121.5,121.5,0,0,1,597.06,331a74.63,74.63,0,0,1,16.22-29.63Q624.35,289.17,633.56,289.16Z"/><path class="cls-1" d="M705.62,298.37a11.77,11.77,0,0,0-7.8,2.88q-3.44,2.89-3.43,8.19a15.86,15.86,0,0,0,3.67,10,37.7,37.7,0,0,0,9,8.19q5.31,3.51,10.69,7.18a39.83,39.83,0,0,1,9.44,9,22.1,22.1,0,0,1,4.52,11.93q0,11.24-9.68,18.88t-24,7.64q-14.36,0-22.54-5.77t-8.19-13.26q0-7.49,4.6-12.09a15.59,15.59,0,0,1,11.47-4.59,17.93,17.93,0,0,1,6.7,1.24q-5,5.31-5,11.23c0,3.95,1.09,7.13,3.28,9.51a11.41,11.41,0,0,0,8.89,3.59,15.2,15.2,0,0,0,9.43-2.88,9,9,0,0,0,3.83-7.49,13.48,13.48,0,0,0-2.65-8.19,27.56,27.56,0,0,0-6.63-6.31q-4-2.75-8.66-6.17t-8.66-6.94a28.46,28.46,0,0,1-6.63-8.89,26.25,26.25,0,0,1-2.65-11.78q0-11.07,9.13-18.16t22.77-7.1q13.65,0,20,5.3t6.33,12.4A17.55,17.55,0,0,1,728.32,318a14.64,14.64,0,0,1-11.47,5,25.88,25.88,0,0,1-7.79-1.4,21.48,21.48,0,0,0,5.3-6.79,17,17,0,0,0,1.87-7.56,7.92,7.92,0,0,0-3.12-6.32A11.41,11.41,0,0,0,705.62,298.37Z"/><path class="cls-1" d="M753.19,353.58q0-6.56,2.5-23.7t2.49-26.68a86.74,86.74,0,0,0-.93-14.66q3.42-.32,6.39-.31,9,0,12.56,3t3.51,10.37q0,2.34-3.83,24.57T772,362.86q-.09,14.43,1.79,18.64-12.16-3.12-16.37-9.44T753.19,353.58Zm21.21-78.45q-16,0-16-11.24,0-4,2.33-11.07a55.77,55.77,0,0,1,7.64-.62q16.06,0,16.07,11.22,0,4.06-2.34,11.08A54.41,54.41,0,0,1,774.4,275.13Z"/><path class="cls-1" d="M855.67,289.63q9.36,0,15.92,9.2t6.55,24.65a72.08,72.08,0,0,1-7,31.82q-7.8,16.36-22.15,22.62a43.68,43.68,0,0,1-17.78,3.58q-13.58,0-23.63-10.53t-10.07-30.26q0-19.72,9.67-34.78T832.74,287a5.59,5.59,0,0,1,3.2,1,2.74,2.74,0,0,1,1.48,2.11Q821.67,301,818.55,320.51a61,61,0,0,1,8-15.13,38.38,38.38,0,0,1,9.9-9.67Q846.32,289.64,855.67,289.63ZM846,301q-10.15,0-18.1,13.64t-8,27.22q0,28.39,14.67,28.39,10.44,0,17-13.65A70,70,0,0,0,858.17,326Q858.17,301,846,301Z"/><path class="cls-1" d="M955.81,289.16c6.14,0,10.52,1.9,13.18,5.7s4,8.94,4,15.44-1,15.62-3.05,27.37-3,20.31-3,25.66.67,9.26,2,11.7a16.51,16.51,0,0,0,6.86,6.31c-1.36.11-3.27.16-5.77.16q-13.1,0-18.64-4.05t-5.54-14.2q0-5.76,3.12-22.54t3.13-25q0-10.29-6.25-10.3-3.59,0-8.1,4.21A49.51,49.51,0,0,0,929,321.06a71.37,71.37,0,0,0-7,18.64,94.62,94.62,0,0,0-2.81,22.7,107.72,107.72,0,0,0,.94,16.76c-3.33.21-5.52.31-6.55.31q-8.89,0-12.79-3.11c-2.61-2.08-3.9-5.52-3.9-10.3q0-3.12,3.27-24t3.28-33.3a92.69,92.69,0,0,0-2.65-22.85q11.38,3.58,15.9,10.21a26.15,26.15,0,0,1,4.53,15.13A121.5,121.5,0,0,1,919.31,331a74.51,74.51,0,0,1,16.22-29.63Q946.62,289.17,955.81,289.16Z"/><line class="cls-2" x1="535.62" y1="188.61" x2="565.18" y2="218.17"/><path class="cls-1" d="M546.53,198a2.77,2.77,0,0,1-1.74-.6,2.79,2.79,0,0,1-.44-3.92L629.27,87.09a2.79,2.79,0,1,1,4.36,3.48L548.7,197A2.76,2.76,0,0,1,546.53,198Z"/><line class="cls-3" x1="552.1" y1="200.44" x2="622.05" y2="113.9"/><line class="cls-3" x1="556.01" y1="208.54" x2="612.04" y2="137.66"/><line class="cls-3" x1="562.02" y1="213.41" x2="601.33" y2="164"/><line class="cls-3" x1="567.13" y1="220.29" x2="596.34" y2="183.64"/><path class="cls-1" d="M803,192.58a5.57,5.57,0,0,1-3.93-1.62l-43.3-43a5.57,5.57,0,1,1,7.85-7.9l43.31,43a5.57,5.57,0,0,1-3.93,9.52Z"/><path class="cls-1" d="M770.83,153.73a2.78,2.78,0,0,1-2.16-4.54l23.56-29a2.79,2.79,0,1,1,4.33,3.51L773,152.7A2.8,2.8,0,0,1,770.83,153.73Z"/><path class="cls-1" d="M773.68,163a2.72,2.72,0,0,1-1.74-.61,2.78,2.78,0,0,1-.44-3.91l21.41-26.84a2.79,2.79,0,0,1,4.35,3.48L775.85,162A2.76,2.76,0,0,1,773.68,163Z"/><path class="cls-1" d="M780.12,168.15a2.78,2.78,0,0,1-2.18-4.52L792.73,145a2.79,2.79,0,0,1,4.37,3.46l-14.8,18.65A2.76,2.76,0,0,1,780.12,168.15Z"/><path class="cls-1" d="M786.38,173.72a2.78,2.78,0,0,1-2.2-4.49l9.23-11.95a2.78,2.78,0,1,1,4.4,3.41l-9.22,11.95A2.78,2.78,0,0,1,786.38,173.72Z"/><line class="cls-3" x1="499.65" y1="153.92" x2="471.85" y2="189.13"/><line class="cls-3" x1="494.08" y1="148.7" x2="446.55" y2="207.93"/><line class="cls-3" x1="490.17" y1="140.61" x2="420.29" y2="228.62"/></svg>